<svg width="2000" height="2000" viewBox="0 0 2000 2000" fill="none" xmlns="http://www.w3.org/2000/svg">
<g clip-path="url(#clip0_474_10)">
<path fill-rule="evenodd" clip-rule="evenodd" d="M1270.5 1161.5C1270.9 1156.04 1270.4 1150.71 1269 1145.5C1268.67 1145.83 1268.33 1146.17 1268 1146.5C1267.67 924.17 1267.33 701.833 1267 479.5C1265.99 478.663 1264.82 478.33 1263.5 478.5C1184.83 398.665 1106.66 318.331 1029 237.5C1019.83 228.162 1010.33 219.162 1000.5 210.5C999.21 211.098 997.87 211.598 996.5 212C910.33 300.833 824.167 389.667 738 478.5C736.333 480.833 734.667 483.167 733 485.5C732.667 809.167 732.333 1132.83 732 1456.5C728.738 1481.76 714.405 1495.43 689 1497.5C662.507 1495.76 647.507 1481.76 644 1455.5C643.333 1124.83 643.333 794.167 644 463.5C644.866 454.112 648.2 445.779 654 438.5C759.525 328.976 865.36 219.809 971.5 111C990.99 98.0411 1010.32 98.3751 1029.5 112C1133.51 219.505 1237.51 326.672 1341.5 433.5C1347.48 439.803 1351.65 447.136 1354 455.5C1354.67 689.167 1354.67 922.83 1354 1156.5C1350.19 1170.98 1341.36 1181.15 1327.5 1187C1308.25 1192.67 1291.59 1188.5 1277.5 1174.5C1274.36 1170.56 1272.03 1166.22 1270.5 1161.5Z" fill="#246AEA"/>
<path fill-rule="evenodd" clip-rule="evenodd" d="M1263.5 478.5C1264.82 478.33 1265.99 478.663 1267 479.5C1267.33 701.833 1267.67 924.17 1268 1146.5C1268.33 1146.17 1268.67 1145.83 1269 1145.5C1270.4 1150.71 1270.9 1156.04 1270.5 1161.5C1269.82 1156.79 1268.65 1152.12 1267 1147.5C1266.67 925.83 1266.33 704.167 1266 482.5C1264.52 481.529 1263.69 480.196 1263.5 478.5Z" fill="#2D70EA"/>
<path fill-rule="evenodd" clip-rule="evenodd" d="M891.5 1013.5C912.6 1013.8 927.44 1023.47 936 1042.5C937.14 1047.08 937.81 1051.75 938 1056.5C938.67 1310.17 938.67 1563.83 938 1817.5C938 1839.16 927.84 1853.66 907.5 1861C881.89 1866.26 863.72 1857.09 853 1833.5C852.04 1826.35 851.21 1819.18 850.5 1812C851.83 1560.45 851.83 1309.12 850.5 1058C851.78 1053.28 852.61 1048.45 853 1043.5C860.54 1026.44 873.37 1016.44 891.5 1013.5Z" fill="#246AEA"/>
<path fill-rule="evenodd" clip-rule="evenodd" d="M1098.5 1190.5C1123.11 1190.38 1138.94 1202.04 1146 1225.5C1146.67 1308.83 1146.67 1392.17 1146 1475.5C1137 1502.93 1118.17 1513.76 1089.5 1508C1072.4 1501.22 1062.23 1488.72 1059 1470.5C1058.33 1390.83 1058.33 1311.17 1059 1231.5C1062.91 1208.76 1076.08 1195.09 1098.5 1190.5Z" fill="#246AEA"/>
<path fill-rule="evenodd" clip-rule="evenodd" d="M1303.5 1250.5C1334.71 1249.25 1352.04 1264.09 1355.5 1295C1354.18 1365.28 1354.18 1435.28 1355.5 1505C1351.91 1530.58 1337.08 1544.75 1311 1547.5C1300.76 1546.56 1291.6 1543.06 1283.5 1537C1274.79 1529.43 1269.29 1519.93 1267 1508.5C1266.33 1435.5 1266.33 1362.5 1267 1289.5C1269.57 1276.52 1276.07 1266.02 1286.5 1258C1292.24 1255.38 1297.9 1252.88 1303.5 1250.5Z" fill="#246AEA"/>
<path fill-rule="evenodd" clip-rule="evenodd" d="M1096.5 1543.5C1121.99 1542.49 1138.49 1554.16 1146 1578.5C1146.67 1617.17 1146.67 1655.83 1146 1694.5C1140.79 1711.04 1129.96 1721.88 1113.5 1727C1083.64 1730.45 1065.48 1717.62 1059 1688.5C1058.33 1653.17 1058.33 1617.83 1059 1582.5C1063.44 1561.54 1075.94 1548.54 1096.5 1543.5Z" fill="#246AEA"/>
<path fill-rule="evenodd" clip-rule="evenodd" d="M684.5 1567.5C707.288 1566.77 722.788 1577.11 731 1598.5C731.333 1602.17 731.667 1605.83 732 1609.5C732.973 1695.19 732.64 1780.85 731 1866.5C721.253 1890.54 703.419 1900.7 677.5 1897C658.79 1890.76 647.623 1877.92 644 1858.5C643.333 1774.5 643.333 1690.5 644 1606.5C648.614 1584.05 662.114 1571.05 684.5 1567.5Z" fill="#246AEA"/>
</g>
<defs>
<clipPath id="clip0_474_10">
<rect width="713" height="1797" fill="white" transform="translate(643 101)"/>
</clipPath>
</defs>
</svg>
