<svg width="713" height="1797" viewBox="0 0 713 1797" fill="none" xmlns="http://www.w3.org/2000/svg">
<path fill-rule="evenodd" clip-rule="evenodd" d="M627.5 1060.5C627.9 1055.04 627.4 1049.71 626 1044.5C625.67 1044.83 625.33 1045.17 625 1045.5C624.67 823.17 624.33 600.833 624 378.5C622.99 377.663 621.82 377.33 620.5 377.5C541.83 297.665 463.66 217.331 386 136.5C376.83 127.162 367.33 118.162 357.5 109.5C356.21 110.098 354.87 110.598 353.5 111C267.33 199.833 181.167 288.667 95 377.5C93.333 379.833 91.667 382.167 90 384.5C89.667 708.167 89.333 1031.83 89 1355.5C85.738 1380.76 71.405 1394.43 46 1396.5C19.507 1394.76 4.50701 1380.76 1.00001 1354.5C0.333006 1023.83 0.333006 693.167 1.00001 362.5C1.86601 353.112 5.20001 344.779 11 337.5C116.525 227.976 222.36 118.809 328.5 10C347.99 -2.959 367.32 -2.625 386.5 11C490.51 118.505 594.51 225.672 698.5 332.5C704.48 338.803 708.65 346.136 711 354.5C711.67 588.167 711.67 821.83 711 1055.5C707.19 1069.98 698.36 1080.15 684.5 1086C665.25 1091.67 648.59 1087.5 634.5 1073.5C631.36 1069.56 629.03 1065.22 627.5 1060.5Z" fill="#246AEA"/>
<path fill-rule="evenodd" clip-rule="evenodd" d="M620.5 377.5C621.82 377.33 622.99 377.663 624 378.5C624.33 600.833 624.67 823.17 625 1045.5C625.33 1045.17 625.67 1044.83 626 1044.5C627.4 1049.71 627.9 1055.04 627.5 1060.5C626.82 1055.79 625.65 1051.12 624 1046.5C623.67 824.83 623.33 603.167 623 381.5C621.52 380.529 620.69 379.196 620.5 377.5Z" fill="#2D70EA"/>
<path fill-rule="evenodd" clip-rule="evenodd" d="M248.5 912.5C269.6 912.8 284.44 922.47 293 941.5C294.14 946.08 294.81 950.75 295 955.5C295.67 1209.17 295.67 1462.83 295 1716.5C295 1738.16 284.84 1752.66 264.5 1760C238.89 1765.26 220.72 1756.09 210 1732.5C209.04 1725.35 208.21 1718.18 207.5 1711C208.83 1459.45 208.83 1208.12 207.5 957C208.78 952.28 209.61 947.45 210 942.5C217.54 925.44 230.37 915.44 248.5 912.5Z" fill="#246AEA"/>
<path fill-rule="evenodd" clip-rule="evenodd" d="M455.5 1089.5C480.11 1089.38 495.94 1101.04 503 1124.5C503.67 1207.83 503.67 1291.17 503 1374.5C494 1401.93 475.17 1412.76 446.5 1407C429.4 1400.22 419.23 1387.72 416 1369.5C415.33 1289.83 415.33 1210.17 416 1130.5C419.91 1107.76 433.08 1094.09 455.5 1089.5Z" fill="#246AEA"/>
<path fill-rule="evenodd" clip-rule="evenodd" d="M660.5 1149.5C691.71 1148.25 709.04 1163.09 712.5 1194C711.18 1264.28 711.18 1334.28 712.5 1404C708.91 1429.58 694.08 1443.75 668 1446.5C657.76 1445.56 648.6 1442.06 640.5 1436C631.79 1428.43 626.29 1418.93 624 1407.5C623.33 1334.5 623.33 1261.5 624 1188.5C626.57 1175.52 633.07 1165.02 643.5 1157C649.24 1154.38 654.9 1151.88 660.5 1149.5Z" fill="#246AEA"/>
<path fill-rule="evenodd" clip-rule="evenodd" d="M453.5 1442.5C478.99 1441.49 495.49 1453.16 503 1477.5C503.67 1516.17 503.67 1554.83 503 1593.5C497.79 1610.04 486.96 1620.88 470.5 1626C440.64 1629.45 422.48 1616.62 416 1587.5C415.33 1552.17 415.33 1516.83 416 1481.5C420.44 1460.54 432.94 1447.54 453.5 1442.5Z" fill="#246AEA"/>
<path fill-rule="evenodd" clip-rule="evenodd" d="M41.5 1466.5C64.288 1465.77 79.788 1476.11 88 1497.5C88.333 1501.17 88.667 1504.83 89 1508.5C89.973 1594.19 89.64 1679.85 88 1765.5C78.253 1789.54 60.419 1799.7 34.5 1796C15.79 1789.76 4.62301 1776.92 1.00001 1757.5C0.333006 1673.5 0.333006 1589.5 1.00001 1505.5C5.61401 1483.05 19.114 1470.05 41.5 1466.5Z" fill="#246AEA"/>
</svg>
