<svg width="51" height="50" viewBox="0 0 51 50" fill="none" xmlns="http://www.w3.org/2000/svg" xmlns:xlink="http://www.w3.org/1999/xlink">
    <rect width="50" height="50" fill="#2775CA" rx="25"></rect>
    <path
        fill="#fff"
        d="M31.284 28.319c0-3.319-2-4.456-6-4.931-2.856-.38-3.426-1.138-3.426-2.466 0-1.328.953-2.181 2.856-2.181 1.714 0 2.667.568 3.142 1.992a.716.716 0 00.667.473h1.524a.65.65 0 00.667-.664v-.094a4.75 4.75 0 00-4.286-3.889v-2.275c0-.38-.286-.664-.76-.759h-1.43c-.38 0-.666.284-.761.76v2.18c-2.858.379-4.666 2.276-4.666 4.648 0 3.128 1.903 4.36 5.903 4.835 2.667.474 3.524 1.044 3.524 2.561 0 1.516-1.333 2.56-3.143 2.56-2.476 0-3.332-1.042-3.618-2.466-.094-.378-.382-.569-.668-.569h-1.618a.649.649 0 00-.666.664v.094c.38 2.372 1.905 4.078 5.047 4.553v2.277c0 .378.286.664.76.758h1.43c.38 0 .666-.285.761-.758v-2.278c2.858-.474 4.761-2.466 4.761-5.027v.002z"
    ></path>
    <path
        fill="#fff"
        d="M20.144 38.277C12.716 35.62 8.906 27.37 11.669 20.069c1.428-3.985 4.57-7.017 8.475-8.44.381-.19.57-.474.57-.95V9.353c0-.379-.189-.663-.57-.758-.096 0-.286 0-.381.094A17.023 17.023 0 008.621 30.12c1.712 5.313 5.808 9.39 11.14 11.097.382.19.763 0 .857-.38.095-.093.095-.19.095-.38V39.13c0-.285-.284-.663-.57-.853zM30.238 8.689c-.382-.19-.763 0-.857.378-.095.095-.095.19-.095.38v1.328c0 .38.284.758.57.948 7.428 2.657 11.238 10.907 8.475 18.208-1.428 3.985-4.57 7.017-8.475 8.44-.381.19-.57.474-.57.95v1.327c0 .379.189.663.57.758.096 0 .286 0 .381-.093A17.024 17.024 0 0041.379 19.88c-1.712-5.407-5.903-9.485-11.14-11.19z"
    ></path>
</svg>