<svg width="60" height="50" viewBox="0 0 60 50" fill="none" xmlns="http://www.w3.org/2000/svg">
<g clip-path="url(#clip0_238_7261)">
<path d="M51.248 6.54L44.133 10.165L9.77549 27.665C9.65931 26.7789 9.60085 25.8862 9.60049 24.9925C9.60518 21.4267 10.5414 17.924 12.3163 14.8314C14.0912 11.7388 16.6433 9.1635 19.7198 7.36067C22.7962 5.55784 26.2903 4.59001 29.8559 4.55306C33.4215 4.51611 36.9348 5.41131 40.048 7.15L44.1205 5.075L44.728 4.765C40.9973 2.05722 36.5906 0.433652 31.9949 0.0737337C27.3992 -0.286185 22.7935 0.631562 18.6868 2.72554C14.58 4.81952 11.1322 8.00819 8.72442 11.9391C6.31659 15.8701 5.04251 20.3902 5.04299 25C5.04299 25.6367 5.06715 26.2708 5.11549 26.9025C5.18318 27.797 4.98479 28.6916 4.54528 29.4736C4.10578 30.2557 3.44479 30.8902 2.64549 31.2975L0.497986 32.3925V37.5L6.82049 34.2775L8.86799 33.2325L10.8855 32.205L47.1055 13.75L51.1755 11.6775L59.588 7.39V2.285L51.248 6.54Z" fill="black"/>
<path d="M59.588 12.5L12.943 36.25L8.87299 38.3275L0.497986 42.595V47.6975L8.81549 43.46L15.9305 39.835L50.323 22.31C50.4393 23.202 50.4977 24.1005 50.498 25C50.4958 28.5699 49.5599 32.0771 47.7832 35.1735C46.0066 38.2699 43.4509 40.8478 40.37 42.6512C37.2891 44.4546 33.7901 45.4208 30.2204 45.4539C26.6506 45.4871 23.1343 44.5859 20.0205 42.84L19.7705 42.9725L15.3555 45.2225C19.0853 47.9304 23.4911 49.5544 28.0861 49.9152C32.6811 50.276 37.2863 49.3595 41.3931 47.2669C45.4998 45.1743 48.9481 41.9872 51.357 38.0577C53.7658 34.1281 55.0415 29.6091 55.043 25C55.043 24.3575 55.018 23.715 54.9705 23.08C54.9029 22.1858 55.1011 21.2916 55.5401 20.5096C55.9791 19.7277 56.6394 19.0929 57.438 18.685L59.588 17.59V12.5Z" fill="black"/>
</g>
<defs>
<clipPath id="clip0_238_7261">
<rect width="59.09" height="50" fill="white" transform="translate(0.497986)"/>
</clipPath>
</defs>
</svg>
